# xmcd CD database file
#
# Track frame offsets:
#	150
#	9547
#	44686
#	64986
#	86532
#	106896
#	128729
#	151889
#	173287
#	199886
#	228753
#	259336
#	286699
#	310871
#
# Disc length: 4437 seconds
#
# Revision: 1
# Processed by: cddbd v1.5.1PL2 Copyright (c) Steve Scherf et al.
# Submitted via: CDex 1.51
#
DISCID=b111530e
DTITLE=COVA D´EN XOROI - MENORCA - BREEZE OF PEACE
DYEAR=2004
DGENRE=New Age
TTITLE0=The Cinematic Orchestra - ODESSA
TTITLE1=The Egg - VENICE BEACH
TTITLE2=TM Juke - JUST FOR A DAY (SUNDAY)
TTITLE3=Bonobo - THE SHARK
TTITLE4=Funki Porcini - TIERS OF JOY
TTITLE5=The Cinematic Orchestra - DRUNKEN TUNE
TTITLE6=Al Stylus - HIGH RISE
TTITLE7=Kraak and Smaak - MAMBO SOLITARIO
TTITLE8=Fragile State - EVERY DAY A STORY
TTITLE9=Mettle Music - SCARY STRINGS
TTITLE10=Aqua Bassino - A MELLOW KEY
TTITLE11=Alexkid - BIENVENIDA
TTITLE12=Funk Inc - LET`S MAKE PEACE AND STOP THE WAR
TTITLE13=Fragile State - PAPER SMILE
EXTD=YEAR: 2004
EXTT0=
EXTT1=
EXTT2=
EXTT3=
EXTT4=
EXTT5=
EXTT6=
EXTT7=
EXTT8=
EXTT9=
EXTT10=
EXTT11=
EXTT12=
EXTT13=
PLAYORDER=
